<?xml version="1.0" encoding="utf-8"?>
<!-- Svg Vector Icons : http://www.onlinewebfonts.com/icon -->
<!DOCTYPE svg PUBLIC "-//W3C//DTD SVG 1.1//EN" "http://www.w3.org/Graphics/SVG/1.1/DTD/svg11.dtd">
<svg version="1.1" xmlns="http://www.w3.org/2000/svg" xmlns:xlink="http://www.w3.org/1999/xlink" x="0px" y="0px" viewBox="0 0 1000 1000" enable-background="new 0 0 1000 1000" xml:space="preserve">
<metadata> Svg Vector Icons : http://www.onlinewebfonts.com/icon </metadata>
<g><path d="M928.8,946.2H112.1c-27.3,0-52.9-13.5-72.2-32.8C20.6,894.2,10,865.6,10,838.3V252.1h40.8c0,20.4,6.4,31.7,17.9,43.3c11.6,11.6,26.9,17.9,43.3,17.9h816.7c16.4,0,31.7,3.5,43.3,15c11.6,11.6,17.9,24,17.9,40.4v510.4c0,16.4-6.4,34.7-17.9,46.2C960.5,936.9,945.1,946.2,928.8,946.2L928.8,946.2z M50.8,327.9v510.4c0,16.4,6.4,34.7,17.9,46.2c11.6,11.6,27,20.8,43.3,20.8h816.7c5.5,0,10.6-5,14.4-8.9c3.9-3.9,6-11.9,6-17.4V368.7c0-5.5-2.1-7.7-6-11.5c-3.9-3.9-9-3.1-14.4-3.1H112.1C89.7,354.2,68.4,341.2,50.8,327.9L50.8,327.9z M887.9,354.2H112.1c-27.3,0-52.9-13.5-72.2-32.8C20.6,302.1,10,275,10,247.7c0-27.3,10.6-50.7,29.9-70c19.3-19.3,44.9-27.7,72.2-27.7h326.7c11.3,0,20.4,9.1,20.4,20.4c0,11.3-9.1,20.4-20.4,20.4H112.1c-16.4,0-31.7,3.5-43.3,15c-11.6,11.6-17.9,25.5-17.9,41.9c0,16.4,6.4,33.9,17.9,45.5c11.6,11.6,26.9,20.1,43.3,20.1h775.8c11.3,0,20.4,9.1,20.4,20.4C908.3,345,899.2,354.2,887.9,354.2L887.9,354.2z M867.5,287.1c-11.3,0-20.4-9.1-20.4-20.4v-61.2c0-5.5-2.1-7.7-6-11.5c-3.9-3.9-9-3.1-14.4-3.1H724.6c-11.3,0-20.4-9.1-20.4-20.4c0-11.3,9.1-20.4,20.4-20.4h102.1c16.4,0,31.7,3.4,43.3,15c11.6,11.6,17.9,24,17.9,40.4v61.2C887.9,277.9,878.8,287.1,867.5,287.1L867.5,287.1z M141.6,346.2l-18.2-36.6L625.7,60.1c15-7.5,32.7-8.4,48.6-2.6c15.8,5.9,28.6,18.1,35.1,33.6l96.5,229L768.3,336l-96.5-229c-2.2-5.2-6.4-9.2-11.7-11.2c-5.3-2-11.1-1.7-16.2,0.9L141.6,346.2L141.6,346.2z M990,701.2H724.6c-27.3,0-52.9-13.5-72.2-32.8c-19.3-19.3-29.9-46.3-29.9-73.6c0-27.3,10.6-50.7,29.9-70c19.3-19.3,44.9-27.7,72.2-27.7H990V701.2L990,701.2z M724.6,537.9c-16.4,0-31.7,3.5-43.3,15c-11.6,11.6-18,25.5-18,41.9c0,16.4,6.4,33.9,17.9,45.5c11.6,11.6,26.9,20.2,43.3,20.2h224.6V537.9H724.6L724.6,537.9z"/></g>
</svg>