<?xml version="1.0" encoding="utf-8"?>
<!-- Svg Vector Icons : http://www.onlinewebfonts.com/icon -->
<!DOCTYPE svg PUBLIC "-//W3C//DTD SVG 1.1//EN" "http://www.w3.org/Graphics/SVG/1.1/DTD/svg11.dtd">
<svg version="1.1" xmlns="http://www.w3.org/2000/svg" xmlns:xlink="http://www.w3.org/1999/xlink" x="0px" y="0px" viewBox="0 0 1000 1000" enable-background="new 0 0 1000 1000" xml:space="preserve">
<metadata> Svg Vector Icons : http://www.onlinewebfonts.com/icon </metadata>
<g><g transform="translate(0.000000,512.000000) scale(0.100000,-0.100000)"><path d="M1098.2,5006.1c-449.2-97.9-787.1-401.2-944.5-844.7L100,4007.9v-604.7v-604.7l55.7-168.9c144-437.7,510.6-787.1,934.9-886.9c184.3-42.2,222.7-38.4,297.5,36.5c134.4,134.4,61.4,318.7-138.2,347.5c-378.2,55.7-650.8,309.1-729.5,679.6c-36.5,176.6-36.5,998.2,0,1174.9c76.8,360.9,322.5,583.6,693,631.6c103.7,13.4,1361.1,19.2,3887.4,15.4c3580.2-5.8,3737.6-7.7,3839.4-42.2c278.4-94.1,456.9-282.2,529.8-558.6c40.3-145.9,36.5-1132.6-1.9-1286.2c-42.2-161.3-117.1-287.9-234.2-393.5c-126.7-117.1-268.8-184.3-449.2-215c-107.5-19.2-149.7-36.5-193.9-78.7c-94.1-96-59.5-270.7,63.3-320.6c76.8-32.6,268.8-3.8,439.6,65.3c349.4,142.1,648.8,478,766,863.9c36.5,120.9,40.3,174.7,40.3,739.1v606.6l-55.7,159.3c-111.3,316.7-347.5,587.4-641.2,729.5c-303.3,147.8,9.6,138.2-4211.8,136.3C1937.1,5033,1192.3,5027.3,1098.2,5006.1z"/><path d="M1585.8,4209.5c-637.3-11.5-629.7-9.6-670-151.7c-25-92.1-25-1027,0-1119.2c42.2-151.6,213.1-199.6,330.2-94.1l63.3,55.7l5.8,453l5.8,453h311h312.9l-25-253.4c-128.6-1307.3-543.3-5636.2-543.3-5682.3c0-40.3,19.2-76.8,65.3-122.9l65.3-65.3h405.1h405.1v-53.8c0-28.8-30.7-512.6-67.2-1077c-82.5-1268.9-82.5-1217.1-11.5-1290l55.7-55.7h3113.7c2737.5,0,3119.5,3.8,3167.5,28.8c74.9,38.4,96,82.5,96,195.8c0,51.8-59.5,973.3-134.4,2050.2c-349.4,5110.2-422.3,6191-422.3,6254.3v71h288h287.9v-449.2v-449.2l59.5-59.5c97.9-99.8,259.2-74.9,322.5,49.9c13.4,26.9,21.1,226.5,21.1,600.8c0,598.9-5.8,637.3-99.8,687.2c-34.6,19.2-798.6,25-3442,28.8C3682.1,4217.2,1898.7,4215.2,1585.8,4209.5z M2720.4,3785.2c0-11.5-82.5-1278.5-182.4-2814.3c-99.8-1537.7-182.4-2816.2-182.4-2841.1c0-44.2,0-44.2-266.8-44.2c-147.8,0-272.6,5.8-276.4,15.4c-3.8,7.7,42.2,527.9,103.7,1155.7c61.4,627.7,180.4,1867.9,264.9,2754.7c86.4,886.9,161.3,1652.9,167,1704.7l11.5,90.2h180.4C2655.1,3806.3,2720.4,3798.7,2720.4,3785.2z M7702,3687.3c5.8-67.2,92.1-1326.5,192-2798.9s199.7-2923.7,220.8-3223.2c21.1-301.4,36.5-547.1,32.6-549c-1.9-1.9-55.7-11.5-119-23c-65.3-11.5-195.8-49.9-291.8-86.4c-572.1-215-1050.1-741-1159.5-1276.6l-25-120.9H5425.2H4298.4l-13.4,80.6c-26.9,159.3-130.5,407-241.9,572.1c-270.7,405-725.6,718-1192.1,819.7c-140.1,28.8-149.7,34.6-149.7,80.6c0,26.9,11.5,218.8,26.9,424.2c15.4,205.4,111.3,1689.3,216.9,3298l188.1,2921.8h2278.7h2276.7L7702,3687.3z M2985.3-3373.3c224.6-74.9,353.2-157.4,541.4-345.5c195.8-193.9,291.8-362.8,353.2-620.1l11.5-51.8h-643.1c-598.9,0-643.1,1.9-643.1,34.6c0,17.3,13.4,263,32.6,545.2l32.6,514.5l76.8-11.5C2791.4-3313.8,2897-3344.5,2985.3-3373.3z M8180-3338.7c9.6-44.1,69.1-927.2,69.1-1007.8v-44.2H7606h-641.2l9.6,63.3c17.3,88.3,101.8,297.5,157.4,387.8c176.6,284.1,460.7,493.4,810.1,598.9C8130-3285,8168.4-3285,8180-3338.7z"/><path d="M5864.8,1243.6c-201.6-74.9-359-241.9-499.1-522.2l-96-197.7h-468.4h-466.5l21.1,61.4c11.5,34.6,80.6,119,153.6,190c105.6,103.7,130.5,140.1,130.5,186.2c0,128.6-84.5,215-211.2,215c-72.9,0-201.6-88.3-289.9-195.8c-78.7-99.8-184.3-303.3-201.6-389.7l-11.5-67.2h-182.4c-136.3,0-195.8-7.7-236.1-32.6c-105.6-61.4-128.6-215-49.9-307.2c44.2-51.8,55.7-53.7,251.5-63.3l205.4-9.6L3960.5-10c117.1-311,351.3-535.6,641.2-610.5c357.1-92.1,670,97.9,885,539.4l97.9,201.6h460.7h462.6L6494.5,61c-17.3-94.1-117.1-284.1-213.1-410.8c-69.1-92.1-86.4-128.6-86.4-192c1.9-172.8,192-263,324.4-151.7c126.7,105.6,291.8,401.2,376.3,670l42.2,134.4l205.4,9.6c197.7,9.6,209.2,11.5,253.4,63.3c78.7,92.2,55.7,245.7-49.9,307.2c-40.3,25-99.8,32.6-238,32.6c-167,0-184.3,3.8-184.3,36.5c0,19.2-34.6,105.6-76.8,190c-99.8,199.7-255.3,359-433.8,447.3c-117.1,57.6-151.7,65.3-305.2,69.1C5995.4,1270.4,5910.9,1262.8,5864.8,1243.6z M6292.9,815.5c80.6-40.3,117.1-76.8,167-157.4c32.6-57.6,61.4-111.3,61.4-119c0-7.7-180.4-15.4-403.1-15.4c-220.8,0-403.1,5.8-403.1,11.5c0,25,115.2,213.1,147.8,241.9C5980,884.6,6135.5,898,6292.9,815.5z M5110.4,49.5C5033.6-130.9,4914.6-225,4759.1-225c-197.7,0-359,117.1-416.6,303.3l-11.5,42.2h403.1h405.1L5110.4,49.5z"/></g></g>
</svg>